<mxfile host="app.diagrams.net" modified="2024-07-10T12:59:57.657Z" agent="Mozilla/5.0 (Macintosh; Intel Mac OS X 10.15; rv:127.0) Gecko/20100101 Firefox/127.0" etag="rPjPzxwKd9jNVTh9cKvy" version="24.6.2" type="device">
  <diagram name="Page-1" id="X6cYAxVzpninoBqHf7Fy">
    <mxGraphModel dx="1266" dy="705" grid="1" gridSize="10" guides="1" tooltips="1" connect="1" arrows="1" fold="1" page="1" pageScale="1" pageWidth="850" pageHeight="1100" math="0" shadow="0">
      <root>
        <mxCell id="0" />
        <mxCell id="1" parent="0" />
        <mxCell id="6Hu0gMCPUN1x9ROZbJGN-20" style="edgeStyle=orthogonalEdgeStyle;rounded=0;orthogonalLoop=1;jettySize=auto;html=1;exitX=1;exitY=0.5;exitDx=0;exitDy=0;entryX=0;entryY=0.5;entryDx=0;entryDy=0;" edge="1" parent="1" source="6Hu0gMCPUN1x9ROZbJGN-2" target="6Hu0gMCPUN1x9ROZbJGN-12">
          <mxGeometry relative="1" as="geometry" />
        </mxCell>
        <mxCell id="6Hu0gMCPUN1x9ROZbJGN-2" value="" style="ellipse;whiteSpace=wrap;html=1;aspect=fixed;fillColor=#fff2cc;strokeColor=#d6b656;" vertex="1" parent="1">
          <mxGeometry x="120" y="220" width="40" height="40" as="geometry" />
        </mxCell>
        <mxCell id="6Hu0gMCPUN1x9ROZbJGN-4" value="" style="ellipse;whiteSpace=wrap;html=1;aspect=fixed;fillColor=#fff2cc;strokeColor=#d6b656;" vertex="1" parent="1">
          <mxGeometry x="120" y="320" width="40" height="40" as="geometry" />
        </mxCell>
        <mxCell id="6Hu0gMCPUN1x9ROZbJGN-5" value="&lt;font style=&quot;font-size: 24px;&quot;&gt;...&lt;/font&gt;" style="text;html=1;align=center;verticalAlign=middle;whiteSpace=wrap;rounded=0;" vertex="1" parent="1">
          <mxGeometry x="110" y="274" width="60" height="30" as="geometry" />
        </mxCell>
        <mxCell id="6Hu0gMCPUN1x9ROZbJGN-8" value="" style="ellipse;whiteSpace=wrap;html=1;aspect=fixed;fillColor=#dae8fc;strokeColor=#6c8ebf;" vertex="1" parent="1">
          <mxGeometry x="479" y="219" width="40" height="40" as="geometry" />
        </mxCell>
        <mxCell id="6Hu0gMCPUN1x9ROZbJGN-9" value="" style="ellipse;whiteSpace=wrap;html=1;aspect=fixed;fillColor=#dae8fc;strokeColor=#6c8ebf;" vertex="1" parent="1">
          <mxGeometry x="479" y="319" width="40" height="40" as="geometry" />
        </mxCell>
        <mxCell id="6Hu0gMCPUN1x9ROZbJGN-10" value="&lt;font style=&quot;font-size: 24px;&quot;&gt;...&lt;/font&gt;" style="text;html=1;align=center;verticalAlign=middle;whiteSpace=wrap;rounded=0;" vertex="1" parent="1">
          <mxGeometry x="469" y="273" width="60" height="30" as="geometry" />
        </mxCell>
        <mxCell id="6Hu0gMCPUN1x9ROZbJGN-12" value="" style="ellipse;whiteSpace=wrap;html=1;aspect=fixed;fillColor=#d5e8d4;strokeColor=#82b366;" vertex="1" parent="1">
          <mxGeometry x="241" y="220" width="40" height="40" as="geometry" />
        </mxCell>
        <mxCell id="6Hu0gMCPUN1x9ROZbJGN-13" value="" style="ellipse;whiteSpace=wrap;html=1;aspect=fixed;fillColor=#d5e8d4;strokeColor=#82b366;" vertex="1" parent="1">
          <mxGeometry x="241" y="320" width="40" height="40" as="geometry" />
        </mxCell>
        <mxCell id="6Hu0gMCPUN1x9ROZbJGN-14" value="&lt;font style=&quot;font-size: 24px;&quot;&gt;...&lt;/font&gt;" style="text;html=1;align=center;verticalAlign=middle;whiteSpace=wrap;rounded=0;" vertex="1" parent="1">
          <mxGeometry x="231" y="274" width="60" height="30" as="geometry" />
        </mxCell>
        <mxCell id="6Hu0gMCPUN1x9ROZbJGN-15" value="" style="ellipse;whiteSpace=wrap;html=1;aspect=fixed;fillColor=#d5e8d4;strokeColor=#82b366;" vertex="1" parent="1">
          <mxGeometry x="241" y="380" width="40" height="40" as="geometry" />
        </mxCell>
        <mxCell id="6Hu0gMCPUN1x9ROZbJGN-16" value="" style="ellipse;whiteSpace=wrap;html=1;aspect=fixed;fillColor=#d5e8d4;strokeColor=#82b366;" vertex="1" parent="1">
          <mxGeometry x="241" y="160" width="40" height="40" as="geometry" />
        </mxCell>
        <mxCell id="6Hu0gMCPUN1x9ROZbJGN-17" value="" style="endArrow=classic;html=1;rounded=0;entryX=0;entryY=0.5;entryDx=0;entryDy=0;exitX=1;exitY=0.5;exitDx=0;exitDy=0;" edge="1" parent="1" source="6Hu0gMCPUN1x9ROZbJGN-2" target="6Hu0gMCPUN1x9ROZbJGN-16">
          <mxGeometry width="50" height="50" relative="1" as="geometry">
            <mxPoint x="160" y="240" as="sourcePoint" />
            <mxPoint x="210" y="190" as="targetPoint" />
          </mxGeometry>
        </mxCell>
        <mxCell id="6Hu0gMCPUN1x9ROZbJGN-19" value="" style="endArrow=classic;html=1;rounded=0;entryX=0;entryY=0.5;entryDx=0;entryDy=0;" edge="1" parent="1" target="6Hu0gMCPUN1x9ROZbJGN-15">
          <mxGeometry width="50" height="50" relative="1" as="geometry">
            <mxPoint x="160" y="240" as="sourcePoint" />
            <mxPoint x="430" y="350" as="targetPoint" />
          </mxGeometry>
        </mxCell>
        <mxCell id="6Hu0gMCPUN1x9ROZbJGN-21" value="" style="endArrow=classic;html=1;rounded=0;exitX=1;exitY=0.5;exitDx=0;exitDy=0;entryX=0;entryY=0.5;entryDx=0;entryDy=0;" edge="1" parent="1" source="6Hu0gMCPUN1x9ROZbJGN-2" target="6Hu0gMCPUN1x9ROZbJGN-13">
          <mxGeometry width="50" height="50" relative="1" as="geometry">
            <mxPoint x="380" y="400" as="sourcePoint" />
            <mxPoint x="430" y="350" as="targetPoint" />
          </mxGeometry>
        </mxCell>
        <mxCell id="6Hu0gMCPUN1x9ROZbJGN-22" value="" style="endArrow=classic;html=1;rounded=0;exitX=1;exitY=0.5;exitDx=0;exitDy=0;entryX=0;entryY=0.5;entryDx=0;entryDy=0;" edge="1" parent="1" source="6Hu0gMCPUN1x9ROZbJGN-4" target="6Hu0gMCPUN1x9ROZbJGN-16">
          <mxGeometry width="50" height="50" relative="1" as="geometry">
            <mxPoint x="380" y="400" as="sourcePoint" />
            <mxPoint x="430" y="350" as="targetPoint" />
          </mxGeometry>
        </mxCell>
        <mxCell id="6Hu0gMCPUN1x9ROZbJGN-23" value="" style="endArrow=classic;html=1;rounded=0;exitX=1;exitY=0.5;exitDx=0;exitDy=0;entryX=0;entryY=0.325;entryDx=0;entryDy=0;entryPerimeter=0;" edge="1" parent="1" source="6Hu0gMCPUN1x9ROZbJGN-4" target="6Hu0gMCPUN1x9ROZbJGN-13">
          <mxGeometry width="50" height="50" relative="1" as="geometry">
            <mxPoint x="380" y="400" as="sourcePoint" />
            <mxPoint x="430" y="350" as="targetPoint" />
          </mxGeometry>
        </mxCell>
        <mxCell id="6Hu0gMCPUN1x9ROZbJGN-24" value="" style="endArrow=classic;html=1;rounded=0;entryX=0;entryY=0.5;entryDx=0;entryDy=0;" edge="1" parent="1" target="6Hu0gMCPUN1x9ROZbJGN-15">
          <mxGeometry width="50" height="50" relative="1" as="geometry">
            <mxPoint x="160" y="340" as="sourcePoint" />
            <mxPoint x="430" y="350" as="targetPoint" />
          </mxGeometry>
        </mxCell>
        <mxCell id="6Hu0gMCPUN1x9ROZbJGN-25" value="" style="endArrow=classic;html=1;rounded=0;exitX=1;exitY=0.5;exitDx=0;exitDy=0;entryX=0;entryY=0.5;entryDx=0;entryDy=0;" edge="1" parent="1" source="6Hu0gMCPUN1x9ROZbJGN-4" target="6Hu0gMCPUN1x9ROZbJGN-12">
          <mxGeometry width="50" height="50" relative="1" as="geometry">
            <mxPoint x="380" y="400" as="sourcePoint" />
            <mxPoint x="430" y="350" as="targetPoint" />
          </mxGeometry>
        </mxCell>
        <mxCell id="6Hu0gMCPUN1x9ROZbJGN-26" value="" style="endArrow=classic;html=1;rounded=0;exitX=1;exitY=0.5;exitDx=0;exitDy=0;entryX=0;entryY=0.5;entryDx=0;entryDy=0;" edge="1" parent="1" target="6Hu0gMCPUN1x9ROZbJGN-9">
          <mxGeometry width="50" height="50" relative="1" as="geometry">
            <mxPoint x="400" y="400" as="sourcePoint" />
            <mxPoint x="549" y="350" as="targetPoint" />
          </mxGeometry>
        </mxCell>
        <mxCell id="6Hu0gMCPUN1x9ROZbJGN-27" value="" style="endArrow=classic;html=1;rounded=0;exitX=1;exitY=0.5;exitDx=0;exitDy=0;" edge="1" parent="1">
          <mxGeometry width="50" height="50" relative="1" as="geometry">
            <mxPoint x="400" y="340" as="sourcePoint" />
            <mxPoint x="479" y="340" as="targetPoint" />
          </mxGeometry>
        </mxCell>
        <mxCell id="6Hu0gMCPUN1x9ROZbJGN-28" value="" style="endArrow=classic;html=1;rounded=0;exitX=1;exitY=0.5;exitDx=0;exitDy=0;entryX=0;entryY=0.5;entryDx=0;entryDy=0;" edge="1" parent="1" target="6Hu0gMCPUN1x9ROZbJGN-9">
          <mxGeometry width="50" height="50" relative="1" as="geometry">
            <mxPoint x="400" y="240" as="sourcePoint" />
            <mxPoint x="549" y="350" as="targetPoint" />
          </mxGeometry>
        </mxCell>
        <mxCell id="6Hu0gMCPUN1x9ROZbJGN-29" value="" style="endArrow=classic;html=1;rounded=0;exitX=1;exitY=0.5;exitDx=0;exitDy=0;entryX=0;entryY=0.5;entryDx=0;entryDy=0;" edge="1" parent="1" target="6Hu0gMCPUN1x9ROZbJGN-9">
          <mxGeometry width="50" height="50" relative="1" as="geometry">
            <mxPoint x="400" y="180" as="sourcePoint" />
            <mxPoint x="549" y="350" as="targetPoint" />
          </mxGeometry>
        </mxCell>
        <mxCell id="6Hu0gMCPUN1x9ROZbJGN-30" value="" style="endArrow=classic;html=1;rounded=0;entryX=0;entryY=0.5;entryDx=0;entryDy=0;" edge="1" parent="1" target="6Hu0gMCPUN1x9ROZbJGN-8">
          <mxGeometry width="50" height="50" relative="1" as="geometry">
            <mxPoint x="400" y="180" as="sourcePoint" />
            <mxPoint x="450" y="130" as="targetPoint" />
          </mxGeometry>
        </mxCell>
        <mxCell id="6Hu0gMCPUN1x9ROZbJGN-31" value="" style="endArrow=classic;html=1;rounded=0;exitX=1;exitY=0.5;exitDx=0;exitDy=0;entryX=0;entryY=0.5;entryDx=0;entryDy=0;" edge="1" parent="1" target="6Hu0gMCPUN1x9ROZbJGN-8">
          <mxGeometry width="50" height="50" relative="1" as="geometry">
            <mxPoint x="400" y="240" as="sourcePoint" />
            <mxPoint x="549" y="350" as="targetPoint" />
          </mxGeometry>
        </mxCell>
        <mxCell id="6Hu0gMCPUN1x9ROZbJGN-32" value="" style="endArrow=classic;html=1;rounded=0;exitX=1;exitY=0.5;exitDx=0;exitDy=0;entryX=-0.025;entryY=0.675;entryDx=0;entryDy=0;entryPerimeter=0;" edge="1" parent="1" target="6Hu0gMCPUN1x9ROZbJGN-8">
          <mxGeometry width="50" height="50" relative="1" as="geometry">
            <mxPoint x="400" y="340" as="sourcePoint" />
            <mxPoint x="549" y="350" as="targetPoint" />
          </mxGeometry>
        </mxCell>
        <mxCell id="6Hu0gMCPUN1x9ROZbJGN-33" value="" style="endArrow=classic;html=1;rounded=0;exitX=1;exitY=0.5;exitDx=0;exitDy=0;" edge="1" parent="1">
          <mxGeometry width="50" height="50" relative="1" as="geometry">
            <mxPoint x="400" y="400" as="sourcePoint" />
            <mxPoint x="479" y="240" as="targetPoint" />
          </mxGeometry>
        </mxCell>
        <mxCell id="6Hu0gMCPUN1x9ROZbJGN-34" value="&lt;font style=&quot;font-size: 18px;&quot;&gt;x&lt;/font&gt;&lt;font size=&quot;1&quot;&gt;&lt;font style=&quot;font-size: 8px;&quot;&gt;1&lt;/font&gt;&lt;/font&gt;" style="text;html=1;align=center;verticalAlign=middle;whiteSpace=wrap;rounded=0;" vertex="1" parent="1">
          <mxGeometry x="70" y="224" width="60" height="30" as="geometry" />
        </mxCell>
        <mxCell id="6Hu0gMCPUN1x9ROZbJGN-35" value="&lt;font style=&quot;font-size: 18px;&quot;&gt;x&lt;/font&gt;m+1" style="text;html=1;align=center;verticalAlign=middle;whiteSpace=wrap;rounded=0;" vertex="1" parent="1">
          <mxGeometry x="70" y="325" width="60" height="30" as="geometry" />
        </mxCell>
        <mxCell id="6Hu0gMCPUN1x9ROZbJGN-36" value="&lt;font style=&quot;font-size: 18px;&quot;&gt;y&lt;/font&gt;m+1" style="text;html=1;align=center;verticalAlign=middle;whiteSpace=wrap;rounded=0;" vertex="1" parent="1">
          <mxGeometry x="520" y="325" width="60" height="30" as="geometry" />
        </mxCell>
        <mxCell id="6Hu0gMCPUN1x9ROZbJGN-37" value="" style="ellipse;whiteSpace=wrap;html=1;aspect=fixed;fillColor=#d5e8d4;strokeColor=#82b366;" vertex="1" parent="1">
          <mxGeometry x="360" y="220" width="40" height="40" as="geometry" />
        </mxCell>
        <mxCell id="6Hu0gMCPUN1x9ROZbJGN-38" value="" style="ellipse;whiteSpace=wrap;html=1;aspect=fixed;fillColor=#d5e8d4;strokeColor=#82b366;" vertex="1" parent="1">
          <mxGeometry x="360" y="320" width="40" height="40" as="geometry" />
        </mxCell>
        <mxCell id="6Hu0gMCPUN1x9ROZbJGN-39" value="&lt;font style=&quot;font-size: 24px;&quot;&gt;...&lt;/font&gt;" style="text;html=1;align=center;verticalAlign=middle;whiteSpace=wrap;rounded=0;" vertex="1" parent="1">
          <mxGeometry x="350" y="274" width="60" height="30" as="geometry" />
        </mxCell>
        <mxCell id="6Hu0gMCPUN1x9ROZbJGN-40" value="" style="ellipse;whiteSpace=wrap;html=1;aspect=fixed;fillColor=#d5e8d4;strokeColor=#82b366;" vertex="1" parent="1">
          <mxGeometry x="360" y="380" width="40" height="40" as="geometry" />
        </mxCell>
        <mxCell id="6Hu0gMCPUN1x9ROZbJGN-41" value="" style="ellipse;whiteSpace=wrap;html=1;aspect=fixed;fillColor=#d5e8d4;strokeColor=#82b366;" vertex="1" parent="1">
          <mxGeometry x="360" y="160" width="40" height="40" as="geometry" />
        </mxCell>
        <mxCell id="6Hu0gMCPUN1x9ROZbJGN-43" value="&lt;font style=&quot;font-size: 24px;&quot;&gt;...&lt;/font&gt;" style="text;html=1;align=center;verticalAlign=middle;whiteSpace=wrap;rounded=0;" vertex="1" parent="1">
          <mxGeometry x="291" y="274" width="60" height="30" as="geometry" />
        </mxCell>
        <mxCell id="6Hu0gMCPUN1x9ROZbJGN-44" value="&lt;font style=&quot;font-size: 24px;&quot;&gt;...&lt;/font&gt;" style="text;html=1;align=center;verticalAlign=middle;whiteSpace=wrap;rounded=0;" vertex="1" parent="1">
          <mxGeometry x="291" y="355" width="60" height="30" as="geometry" />
        </mxCell>
        <mxCell id="6Hu0gMCPUN1x9ROZbJGN-45" value="&lt;font style=&quot;font-size: 24px;&quot;&gt;...&lt;/font&gt;" style="text;html=1;align=center;verticalAlign=middle;whiteSpace=wrap;rounded=0;" vertex="1" parent="1">
          <mxGeometry x="291" y="200" width="60" height="30" as="geometry" />
        </mxCell>
        <mxCell id="6Hu0gMCPUN1x9ROZbJGN-47" value="" style="endArrow=classic;html=1;rounded=0;entryX=0.75;entryY=1;entryDx=0;entryDy=0;exitX=0;exitY=1;exitDx=0;exitDy=0;" edge="1" parent="1">
          <mxGeometry width="50" height="50" relative="1" as="geometry">
            <mxPoint x="298.5" y="208.5" as="sourcePoint" />
            <mxPoint x="343.5" y="208.5" as="targetPoint" />
          </mxGeometry>
        </mxCell>
        <mxCell id="6Hu0gMCPUN1x9ROZbJGN-48" value="" style="endArrow=classic;html=1;rounded=0;entryX=0.75;entryY=1;entryDx=0;entryDy=0;exitX=0;exitY=1;exitDx=0;exitDy=0;" edge="1" parent="1">
          <mxGeometry width="50" height="50" relative="1" as="geometry">
            <mxPoint x="298.5" y="279" as="sourcePoint" />
            <mxPoint x="343.5" y="279" as="targetPoint" />
          </mxGeometry>
        </mxCell>
        <mxCell id="6Hu0gMCPUN1x9ROZbJGN-49" value="" style="endArrow=classic;html=1;rounded=0;entryX=0.75;entryY=1;entryDx=0;entryDy=0;exitX=0;exitY=1;exitDx=0;exitDy=0;" edge="1" parent="1">
          <mxGeometry width="50" height="50" relative="1" as="geometry">
            <mxPoint x="298.5" y="364" as="sourcePoint" />
            <mxPoint x="343.5" y="364" as="targetPoint" />
          </mxGeometry>
        </mxCell>
        <mxCell id="6Hu0gMCPUN1x9ROZbJGN-51" value="" style="strokeWidth=2;html=1;shape=mxgraph.flowchart.annotation_1;align=left;pointerEvents=1;rotation=90;" vertex="1" parent="1">
          <mxGeometry x="311" y="74" width="20" height="145" as="geometry" />
        </mxCell>
        <mxCell id="6Hu0gMCPUN1x9ROZbJGN-52" value="&lt;font style=&quot;font-size: 16px;&quot;&gt;hidden layers&lt;/font&gt;" style="text;html=1;align=center;verticalAlign=middle;whiteSpace=wrap;rounded=0;" vertex="1" parent="1">
          <mxGeometry x="260" y="100" width="129" height="30" as="geometry" />
        </mxCell>
        <mxCell id="6Hu0gMCPUN1x9ROZbJGN-53" value="&lt;font style=&quot;font-size: 18px;&quot;&gt;y&lt;/font&gt;1" style="text;html=1;align=center;verticalAlign=middle;whiteSpace=wrap;rounded=0;" vertex="1" parent="1">
          <mxGeometry x="520" y="224" width="60" height="30" as="geometry" />
        </mxCell>
      </root>
    </mxGraphModel>
  </diagram>
</mxfile>
